<?xml version="1.0" encoding="utf-8"?>
<!-- Generator: Adobe Illustrator 20.1.0, SVG Export Plug-In . SVG Version: 6.00 Build 0)  -->
<svg version="1.1" id="圖層_1" xmlns="http://www.w3.org/2000/svg" xmlns:xlink="http://www.w3.org/1999/xlink" x="0px" y="0px"
	 viewBox="0 0 40 40" style="enable-background:new 0 0 40 40;" xml:space="preserve">
<style type="text/css">
	.st0{fill:#FFFFFF;}
</style>
<path class="st0" d="M20.4,2.5c9.9,0,18,8.1,18,18s-8.1,18-18,18s-18-8.1-18-18S10.5,2.5,20.4,2.5 M20.4,1.5c-10.5,0-19,8.5-19,19
	s8.5,19,19,19s19-8.5,19-19S30.9,1.5,20.4,1.5L20.4,1.5z"/>
<path class="st0" d="M20.4,27.7c-0.1,0-0.3,0-0.4-0.1l-9.2-9.2c-0.2-0.2-0.2-0.5,0-0.7s0.5-0.2,0.7,0l8.9,8.9l8.9-8.9
	c0.2-0.2,0.5-0.2,0.7,0s0.2,0.5,0,0.7l-9.2,9.2C20.7,27.6,20.5,27.7,20.4,27.7z"/>
</svg>
