<?xml version="1.0" encoding="utf-8"?>
<!-- Generator: Adobe Illustrator 20.1.0, SVG Export Plug-In . SVG Version: 6.00 Build 0)  -->
<svg version="1.1" id="圖層_1" xmlns="http://www.w3.org/2000/svg" xmlns:xlink="http://www.w3.org/1999/xlink" x="0px" y="0px"
	 viewBox="0 0 31.2 31.3" style="enable-background:new 0 0 31.2 31.3;" xml:space="preserve">
<style type="text/css">
	.st0{fill:#FFFFFF;}
</style>
<g>
	<g>
		<g>
			<g>
				<path class="st0" d="M22.8,2.7c0.5,0.8,0.9,1.7,1,2.7c0,0.2,0,0.4,0,0.6h1.3C24.7,4.6,23.9,3.5,22.8,2.7z"/>
				<path class="st0" d="M17.6,0h-5.7H0l1.5,1.5h11.9h5.7c1.3,0,2.6,0.4,3.7,1.2C21.6,1.1,19.7,0,17.6,0z"/>
				<path class="st0" d="M23.7,24.4c-0.3,3.1-3.1,5.4-6.2,5.4h-5.7H5.9c-1.2,0-2.3-0.4-3.3-1c1,1.5,2.8,2.6,4.8,2.6h5.9h5.7
					c3.1,0,5.9-2.3,6.2-5.4c0.2-2.3-0.8-4.3-2.6-5.5C23.5,21.5,23.9,22.9,23.7,24.4z"/>
				<path class="st0" d="M6.2,13.6c0.4,1.3,1.2,2.3,2.3,3.1C8,15.9,7.6,15,7.5,14c0-0.2,0-0.4,0-0.6h0C7,13.4,6.6,13.5,6.2,13.6z"/>
				<path class="st0" d="M13.7,19.4h5.7c1.2,0,2.4,0.4,3.4,1c-1.1-1.6-2.9-2.6-4.9-2.6h-5.7c-1.3,0-2.6-0.4-3.7-1.2
					C9.6,18.3,11.6,19.4,13.7,19.4z"/>
				<path class="st0" d="M29.7,5.9h-4.6h-1.3h-5.9h-5.9c-3.3,0-5.9,2.7-5.9,5.9h1.7c0.7-2.5,3-4.4,5.7-4.4h5.9h4.2h1.7h5.9L29.7,5.9
					z"/>
				<path class="st0" d="M23.6,7.5c-0.7,2.5-3,4.4-5.7,4.4h-5.9H7.7H5.9h0c-3.3,0-5.9,2.7-5.9,5.9L0.1,24c0,2,1,3.7,2.5,4.7
					c-0.6-0.9-1-2-1-3.2l-0.1-6.1c0-2.8,1.9-5.2,4.6-5.8c0.4-0.1,0.8-0.1,1.3-0.1h0h5.9h5.9c3.3,0,5.9-2.7,5.9-5.9H23.6z"/>
			</g>
		</g>
	</g>
</g>
</svg>
